<svg width="201" height="54" viewBox="0 0 201 54" fill="none" xmlns="http://www.w3.org/2000/svg">
<g filter="url(#filter0_d_1_3)">
<path d="M12.68 37V8.72H21.24C23.6667 8.72 25.6933 8.94667 27.32 9.4C28.9733 9.85333 30.4 10.5067 31.6 11.36C33.2533 12.56 34.4933 14.1333 35.32 16.08C36.1467 18 36.56 20.2533 36.56 22.84C36.56 25.4267 36.1467 27.6933 35.32 29.64C34.4933 31.5867 33.2533 33.16 31.6 34.36C30.4 35.2133 28.9733 35.8667 27.32 36.32C25.6933 36.7733 23.6667 37 21.24 37H12.68ZM18.48 31.92H21.24C23.9067 31.92 26.0133 31.3733 27.56 30.28C28.6533 29.5067 29.4533 28.4933 29.96 27.24C30.4933 25.9867 30.76 24.52 30.76 22.84C30.76 21.16 30.4933 19.6933 29.96 18.44C29.4533 17.1867 28.6533 16.1867 27.56 15.44C26.7867 14.9067 25.88 14.4933 24.84 14.2C23.8 13.9067 22.6 13.76 21.24 13.76H18.48V31.92ZM50.685 37.4C49.0583 37.4 47.565 37.16 46.205 36.68C44.8717 36.1733 43.7117 35.4667 42.725 34.56C41.765 33.6533 41.005 32.56 40.445 31.28C39.9117 29.9733 39.645 28.5067 39.645 26.88C39.645 25.28 39.9117 23.84 40.445 22.56C41.005 21.2533 41.765 20.16 42.725 19.28C43.7117 18.3733 44.8717 17.68 46.205 17.2C47.565 16.6933 49.0583 16.44 50.685 16.44C52.3117 16.44 53.805 16.6933 55.165 17.2C56.525 17.68 57.685 18.3733 58.645 19.28C59.6317 20.16 60.3917 21.2533 60.925 22.56C61.485 23.84 61.765 25.28 61.765 26.88C61.765 28.5067 61.485 29.9733 60.925 31.28C60.3917 32.56 59.6317 33.6533 58.645 34.56C57.685 35.4667 56.525 36.1733 55.165 36.68C53.805 37.16 52.3117 37.4 50.685 37.4ZM50.685 33C52.365 33 53.6983 32.44 54.685 31.32C55.6983 30.2 56.205 28.72 56.205 26.88C56.205 25.0933 55.6983 23.64 54.685 22.52C53.6983 21.4 52.365 20.84 50.685 20.84C49.005 20.84 47.6583 21.4 46.645 22.52C45.6583 23.64 45.165 25.0933 45.165 26.88C45.165 28.72 45.6583 30.2 46.645 31.32C47.6583 32.44 49.005 33 50.685 33ZM75.6422 37.4C74.0422 37.4 72.5755 37.1467 71.2422 36.64C69.9089 36.1333 68.7622 35.4133 67.8022 34.48C66.8422 33.5467 66.0955 32.44 65.5622 31.16C65.0289 29.8533 64.7622 28.4267 64.7622 26.88C64.7622 25.3333 65.0289 23.92 65.5622 22.64C66.0955 21.36 66.8422 20.2667 67.8022 19.36C68.7622 18.4267 69.9089 17.7067 71.2422 17.2C72.5755 16.6933 74.0422 16.44 75.6422 16.44C78.2289 16.44 80.4022 17.08 82.1622 18.36C83.9489 19.64 85.0822 21.4933 85.5622 23.92L80.4422 24.4C80.1489 23.1733 79.5755 22.2667 78.7222 21.68C77.8955 21.0667 76.8422 20.76 75.5622 20.76C73.9622 20.76 72.6822 21.3333 71.7222 22.48C70.7622 23.6 70.2822 25.0667 70.2822 26.88C70.2822 28.72 70.7622 30.2133 71.7222 31.36C72.6822 32.48 73.9622 33.04 75.5622 33.04C76.8422 33.04 77.8955 32.7467 78.7222 32.16C79.5755 31.5467 80.1489 30.6267 80.4422 29.4L85.5622 29.88C85.3222 31.08 84.9089 32.1467 84.3222 33.08C83.7355 34.0133 83.0022 34.8 82.1222 35.44C81.2689 36.08 80.2822 36.5733 79.1622 36.92C78.0689 37.24 76.8955 37.4 75.6422 37.4ZM103.312 16.84H108.872V37H103.312V34.68C102.592 35.5333 101.686 36.2 100.592 36.68C99.4989 37.16 98.2722 37.4 96.9122 37.4C94.3522 37.4 92.4322 36.7867 91.1522 35.56C89.8722 34.3067 89.2322 32.56 89.2322 30.32V16.84H94.7522V29.16C94.7522 30.52 95.1122 31.4933 95.8322 32.08C96.5789 32.6667 97.5122 32.96 98.6322 32.96C99.2455 32.96 99.8322 32.88 100.392 32.72C100.952 32.5333 101.446 32.24 101.872 31.84C102.299 31.4133 102.646 30.88 102.912 30.24C103.179 29.5733 103.312 28.76 103.312 27.8V16.84Z" fill="#3083FF"/>
<path d="M127.007 37.56C124.927 37.56 123.021 37.2 121.287 36.48C119.554 35.76 118.061 34.76 116.807 33.48C115.554 32.1733 114.581 30.6267 113.887 28.84C113.194 27.0267 112.847 25.0267 112.847 22.84C112.847 20.6533 113.207 18.6667 113.927 16.88C114.647 15.0667 115.647 13.52 116.927 12.24C118.207 10.9333 119.727 9.93333 121.487 9.24C123.274 8.52 125.221 8.16 127.327 8.16C130.154 8.16 132.647 8.77333 134.807 10C136.967 11.2 138.647 12.88 139.847 15.04L134.807 17.72C134.061 16.36 133.047 15.3067 131.767 14.56C130.487 13.8133 129.007 13.44 127.327 13.44C126.047 13.44 124.874 13.6667 123.807 14.12C122.741 14.5733 121.821 15.2133 121.047 16.04C120.274 16.84 119.674 17.8267 119.247 19C118.821 20.1467 118.607 21.4267 118.607 22.84C118.607 24.2267 118.807 25.5067 119.207 26.68C119.607 27.8267 120.181 28.8133 120.927 29.64C121.701 30.4667 122.621 31.1067 123.687 31.56C124.781 32.0133 125.994 32.24 127.327 32.24C129.221 32.24 130.887 31.7333 132.327 30.72C133.767 29.7067 134.727 28.1867 135.207 26.16H127.567V21.56H140.887V37H136.367V32.72C135.487 34.16 134.274 35.3333 132.727 36.24C131.181 37.12 129.274 37.56 127.007 37.56ZM165.131 28.04H149.811C149.944 29.6667 150.504 30.9067 151.491 31.76C152.477 32.6133 153.691 33.04 155.131 33.04C156.197 33.04 157.117 32.8133 157.891 32.36C158.691 31.9067 159.277 31.2133 159.651 30.28L164.771 30.96C164.104 33.04 162.917 34.64 161.211 35.76C159.504 36.8533 157.491 37.4 155.171 37.4C153.517 37.4 152.024 37.16 150.691 36.68C149.357 36.2 148.211 35.5067 147.251 34.6C146.317 33.6933 145.597 32.6 145.091 31.32C144.584 30.0133 144.331 28.5467 144.331 26.92C144.331 25.2933 144.584 23.84 145.091 22.56C145.624 21.2533 146.357 20.1467 147.291 19.24C148.251 18.3333 149.384 17.64 150.691 17.16C151.997 16.68 153.437 16.44 155.011 16.44C156.451 16.44 157.784 16.6533 159.011 17.08C160.264 17.48 161.344 18.1067 162.251 18.96C163.157 19.8133 163.864 20.8933 164.371 22.2C164.904 23.48 165.171 25 165.171 26.76L165.131 28.04ZM155.011 20.52C153.624 20.52 152.491 20.8667 151.611 21.56C150.757 22.2533 150.197 23.28 149.931 24.64H159.691C159.557 23.3333 159.064 22.32 158.211 21.6C157.357 20.88 156.291 20.52 155.011 20.52ZM181.041 16.44C183.601 16.44 185.507 17.0533 186.761 18.28C188.041 19.5067 188.681 21.2533 188.681 23.52V37H183.161V24.68C183.161 23.32 182.787 22.3467 182.041 21.76C181.321 21.1467 180.401 20.84 179.281 20.84C178.134 20.84 177.107 21.1733 176.201 21.84C175.321 22.48 174.801 23.6133 174.641 25.24V37H169.081V16.84H174.641V19.12C175.361 18.2667 176.267 17.6133 177.361 17.16C178.454 16.68 179.681 16.44 181.041 16.44Z" fill="white"/>
</g>
<defs>
<filter id="filter0_d_1_3" x="0.68" y="0.160004" width="200.001" height="53.4" filterUnits="userSpaceOnUse" color-interpolation-filters="sRGB">
<feFlood flood-opacity="0" result="BackgroundImageFix"/>
<feColorMatrix in="SourceAlpha" type="matrix" values="0 0 0 0 0 0 0 0 0 0 0 0 0 0 0 0 0 0 127 0" result="hardAlpha"/>
<feOffset dy="4"/>
<feGaussianBlur stdDeviation="6"/>
<feComposite in2="hardAlpha" operator="out"/>
<feColorMatrix type="matrix" values="0 0 0 0 0.129167 0 0 0 0 0.4775 0 0 0 0 1 0 0 0 0.4 0"/>
<feBlend mode="normal" in2="BackgroundImageFix" result="effect1_dropShadow_1_3"/>
<feBlend mode="normal" in="SourceGraphic" in2="effect1_dropShadow_1_3" result="shape"/>
</filter>
</defs>
</svg>
